<?xml version="1.0" encoding="UTF-8" standalone="no"?>
<!-- Created with Inkscape (http://www.inkscape.org/) -->
<svg
   xmlns:dc="http://purl.org/dc/elements/1.1/"
   xmlns:cc="http://web.resource.org/cc/"
   xmlns:rdf="http://www.w3.org/1999/02/22-rdf-syntax-ns#"
   xmlns:svg="http://www.w3.org/2000/svg"
   xmlns="http://www.w3.org/2000/svg"
   xmlns:sodipodi="http://sodipodi.sourceforge.net/DTD/sodipodi-0.dtd"
   xmlns:inkscape="http://www.inkscape.org/namespaces/inkscape"
   id="svg2211"
   sodipodi:version="0.32"
   inkscape:version="0.45"
   width="51"
   height="55"
   version="1.0"
   sodipodi:docbase="D:\tmp"
   sodipodi:docname="Evil Eye.svg"
   inkscape:output_extension="org.inkscape.output.svg.inkscape"
   sodipodi:modified="TRUE">
  <metadata
     id="metadata2216">
    <rdf:RDF>
      <cc:Work
         rdf:about="">
        <dc:format>image/svg+xml</dc:format>
        <dc:type
           rdf:resource="http://purl.org/dc/dcmitype/StillImage" />
      </cc:Work>
    </rdf:RDF>
  </metadata>
  <defs
     id="defs2214" />
  <sodipodi:namedview
     inkscape:window-height="573"
     inkscape:window-width="677"
     inkscape:pageshadow="2"
     inkscape:pageopacity="0.0"
     guidetolerance="10.0"
     gridtolerance="10.0"
     objecttolerance="10.0"
     borderopacity="1.0"
     bordercolor="#666666"
     pagecolor="#ffffff"
     id="base"
     inkscape:zoom="6.8545455"
     inkscape:cx="25.5"
     inkscape:cy="28.506048"
     inkscape:window-x="332"
     inkscape:window-y="45"
     inkscape:current-layer="g2220" />
  <g
     id="g2220"
     transform="translate(-0.2917774,1.8302387e-8)">
    <g
       id="g4230">
      <path
         inkscape:export-ydpi="699.90997"
         inkscape:export-xdpi="699.90997"
         sodipodi:nodetypes="csscc"
         id="path2238"
         d="M 50.91512,28.090815 C 50.91512,42.662828 39.673529,54.489389 25.822281,54.489389 C 11.971035,54.489389 0.72944361,46.370493 0.72944361,31.79848 C 0.72944361,17.226467 8.1549229,7.8970282 22.430372,0.91363188 C 36.660679,3.1910438 50.91512,13.518802 50.91512,28.090815 z "
         style="fill:#0000a6;fill-opacity:1;fill-rule:nonzero;stroke:none;stroke-width:3;stroke-linecap:butt;stroke-linejoin:miter;stroke-miterlimit:4;stroke-dashoffset:0;stroke-opacity:1" />
      <path
         inkscape:export-ydpi="699.90997"
         inkscape:export-xdpi="699.90997"
         inkscape:export-filename="D:\tmp\path2238.png"
         sodipodi:nodetypes="csssc"
         id="path2247"
         d="M 42.891248,28.792205 C 42.891248,38.219991 35.267201,45.462531 26.518825,45.462531 C 17.770451,45.462531 8.4555238,37.085279 9.3301517,27.70155 C 10.247008,17.864768 17.068911,12.163464 25.817286,12.163464 C 34.56566,12.163464 42.891248,19.364419 42.891248,28.792205 z "
         style="fill:#ffffff;fill-opacity:1;fill-rule:nonzero;stroke:none;stroke-width:3;stroke-linecap:butt;stroke-linejoin:miter;stroke-miterlimit:4;stroke-dashoffset:0;stroke-opacity:1" />
      <path
         inkscape:export-ydpi="699.90997"
         inkscape:export-xdpi="699.90997"
         inkscape:export-filename="D:\tmp\path2238.png"
         sodipodi:nodetypes="csssc"
         id="path2249"
         d="M 36.83687,30.487686 C 36.83687,36.192644 31.960006,40.575262 26.363944,40.575262 C 20.767882,40.575262 15.974801,36.522634 15.974801,30.817676 C 15.974801,25.112718 20.402914,20.26028 25.998975,20.26028 C 31.595035,20.26028 36.83687,24.782728 36.83687,30.487686 z "
         style="fill:#009dff;fill-opacity:1;fill-rule:nonzero;stroke:none;stroke-width:3;stroke-linecap:butt;stroke-linejoin:miter;stroke-miterlimit:4;stroke-dashoffset:0;stroke-opacity:1" />
      <path
         inkscape:export-ydpi="699.90997"
         inkscape:export-xdpi="699.90997"
         inkscape:export-filename="D:\tmp\path2238.png"
         sodipodi:nodetypes="csssc"
         id="path2251"
         d="M 29.761275,28.840234 C 29.761275,31.062812 27.801128,32.770222 25.551914,32.770222 C 23.302701,32.770222 21.376229,31.191371 21.376229,28.968795 C 21.376229,26.746217 23.15601,24.85577 25.405224,24.85577 C 27.654436,24.85577 29.761275,26.617657 29.761275,28.840234 z "
         style="fill:#00005c;fill-opacity:1;fill-rule:nonzero;stroke:none;stroke-width:3;stroke-linecap:butt;stroke-linejoin:miter;stroke-miterlimit:4;stroke-dashoffset:0;stroke-opacity:1" />
    </g>
  </g>
</svg>
